<svg xmlns="http://www.w3.org/2000/svg"><symbol id="inline-facebook" viewBox="0 0 52 96.1"><path d="M50 0H37.5c-14 0-23.1 9.3-23.1 23.7v10.9H2c-1.1 0-2 .9-2 2v15.8c0 1.1.9 2 2 2h12.5v39.9c0 1.1.9 2 2 2h16.4c1.1 0 2-.9 2-2v-40h14.7c1.1 0 2-.9 2-2V36.5c0-.5-.2-1-.6-1.4s-.9-.6-1.4-.6H34.8v-9.2c0-4.4 1.1-6.7 6.8-6.7H50c1.1 0 2-.9 2-2V2c0-1.1-.9-2-2-2z"/></symbol><symbol id="inline-instagram" viewBox="0 0 510 510"><path d="M459 0H51C23 0 0 23 0 51v408c0 28 23 51 51 51h408c28 0 51-23 51-51V51c0-28-23-51-51-51zM255 153c56.1 0 102 45.9 102 102s-45.9 102-102 102-102-45.9-102-102 45.9-102 102-102zM63.8 459c-7.7 0-12.8-5.1-12.8-12.8V229.5h53.6c-2.6 7.6-2.6 17.9-2.6 25.5 0 84.1 68.9 153 153 153s153-68.9 153-153c0-7.6 0-17.9-2.5-25.5H459v216.8c0 7.6-5.1 12.8-12.8 12.8H63.8zM459 114.8c0 7.7-5.1 12.8-12.8 12.8h-51c-7.6 0-12.8-5.1-12.8-12.8v-51c0-7.7 5.1-12.8 12.8-12.8h51c7.6 0 12.8 5.1 12.8 12.8v51z"/></symbol><symbol id="inline-skype" viewBox="0 0 430.1 430.1"><path d="M412.2 246.2c1.6-10.2 2.5-20.5 2.5-31.1 0-110.2-89.3-199.6-199.6-199.6-10.6 0-21 .9-31.1 2.5-18.5-11.4-40.2-18-63.4-18C54 0 0 54 0 120.6c0 23.2 6.6 44.9 18 63.3-1.6 10.2-2.4 20.5-2.4 31.1 0 110.2 89.3 199.5 199.5 199.5 10.6 0 21-.8 31.2-2.4 18.4 11.4 40.1 17.9 63.3 17.9 66.6 0 120.6-54 120.6-120.6-.1-23.1-6.7-44.8-18-63.2zm-102.4 59.6c-8.4 12.2-20.8 21.6-37 28.5-16.2 6.8-35.4 10.3-57.6 10.3-26.6 0-48.6-4.6-65.9-14-12.3-6.7-22.3-15.7-30-27-7.7-11.3-11.6-22.3-11.6-33 0-6.3 2.4-11.9 7.1-16.3 4.8-4.5 10.9-6.8 18.1-6.8 5.9 0 11 1.8 15.1 5.3s7.6 8.7 10.4 15.4c3.4 7.9 7 14.4 11 19.6 3.9 5.2 9.3 9.5 16.4 12.9 7 3.4 16.3 5.1 28 5.1 15.9 0 28.8-3.4 38.7-10.3 9.9-6.9 14.7-15.2 14.7-25.3 0-8.1-2.6-14.4-7.8-19.4-5.3-5.1-12.2-8.9-20.7-11.6-8.5-2.7-20-5.6-34.4-8.6-19.3-4.2-35.5-9.1-48.5-14.8-13.1-5.7-23.5-13.4-31.3-23.1-7.7-9.9-11.6-22.1-11.6-36.6 0-13.8 4.1-26.2 12.2-37 8.2-10.8 20-19.1 35.4-24.8 15.3-5.8 33.4-8.6 54.1-8.6 16.5 0 30.8 1.9 43 5.7 12.1 3.8 22.1 8.9 30.2 15.3 8 6.3 13.9 13 17.6 20 3.7 7 5.6 13.9 5.6 20.6 0 6.2-2.4 11.9-7.1 16.8-4.7 5-10.7 7.5-17.8 7.5-6.3 0-11.3-1.5-14.8-4.6-3.4-3-6.9-7.8-10.7-14.4-4.8-9.3-10.6-16.5-17.3-21.7-6.5-5.1-17.3-7.7-32.4-7.7-13.9 0-25 2.8-33.4 8.4-8.4 5.6-12.5 12.2-12.5 19.9 0 4.8 1.4 8.9 4.2 12.3 2.8 3.5 6.8 6.5 11.8 9.1 5.1 2.6 10.2 4.6 15.4 6 5.2 1.5 13.9 3.6 25.9 6.5 15.1 3.3 28.8 6.9 41.1 10.9s22.8 8.8 31.5 14.5c8.7 5.7 15.6 13 20.4 21.8 4.9 8.8 7.4 19.6 7.4 32.2-.2 15.2-4.4 28.9-12.9 41z"/></symbol><symbol id="inline-vkontakte" viewBox="0 0 548.4 312.9"><path d="M545.5 282.5c-.7-1.4-1.3-2.6-1.9-3.6-9.5-17.1-27.7-38.2-54.5-63.1l-.6-.6-.3-.3-.3-.3h-.3c-12.2-11.6-19.9-19.4-23.1-23.4-5.9-7.6-7.2-15.3-4-23.1 2.3-5.9 10.9-18.4 25.7-37.4 7.8-10.1 14-18.2 18.6-24.3 32.9-43.8 47.2-71.8 42.8-83.9l-1.7-2.8c-1.1-1.7-4.1-3.3-8.8-4.7-4.8-1.4-10.9-1.7-18.3-.7l-82.2.6c-1.3-.5-3.2-.4-5.7.1-2.5.6-3.7.9-3.7.9l-1.4.7-1.1.9c-1 .6-2 1.6-3.1 3s-2.1 3.1-2.8 5c-9 23-19.1 44.4-30.6 64.2-7 11.8-13.5 22-19.4 30.7-5.9 8.7-10.8 15-14.8 19.1-4 4.1-7.6 7.4-10.9 9.8-3.2 2.5-5.7 3.5-7.4 3.1-1.7-.4-3.3-.8-4.9-1.1-2.7-1.7-4.8-4-6.4-7-1.6-3-2.7-6.7-3.3-11.1-.6-4.5-.9-8.3-1-11.6-.1-3.2 0-7.8.1-13.7.2-5.9.3-9.9.3-12 0-7.2.1-15.1.4-23.6.3-8.5.5-15.2.7-20.1.2-4.9.3-10.2.3-15.7s-.3-9.8-1-13c-.7-3.1-1.7-6.2-3-9.1-1.3-2.9-3.3-5.2-5.9-6.9-2.6-1.6-5.8-2.9-9.6-3.9-10.1-2.3-22.9-3.5-38.5-3.7-35.4-.4-58.1 1.9-68.2 6.9-4 2.1-7.6 4.9-10.8 8.6-3.4 4.2-3.9 6.5-1.4 6.9 11.4 1.7 19.5 5.8 24.3 12.3l1.7 3.4c1.3 2.5 2.7 6.9 4 13.1 1.3 6.3 2.2 13.2 2.6 20.8.9 13.9.9 25.8 0 35.7-1 9.9-1.9 17.6-2.7 23.1-.9 5.5-2.1 10-3.9 13.4-1.7 3.4-2.9 5.5-3.4 6.3-.6.8-1 1.2-1.4 1.4-2.5.9-5 1.4-7.7 1.4s-5.9-1.3-9.7-4c-3.8-2.7-7.8-6.3-11.8-11-4.1-4.7-8.7-11.2-13.9-19.6-5.1-8.4-10.5-18.3-16-29.7l-4.6-8.3c-2.9-5.3-6.8-13.1-11.7-23.3-5-10.2-9.3-20-13.1-29.6-1.5-4-3.8-7-6.9-9.1l-1.4-.9c-.9-.8-2.5-1.6-4.6-2.4-2.1-.9-4.3-1.5-6.6-1.9l-78.2.6c-8 0-13.4 1.8-16.3 5.4l-1.1 1.7C.3 22.4 0 23.9 0 26c0 2.1.6 4.7 1.7 7.7C13.1 60.6 25.6 86.4 39 111.4s25.1 45 35 60.2c9.9 15.2 20 29.6 30.3 43.1s17.1 22.2 20.4 26c3.3 3.8 6 6.7 7.9 8.6l7.1 6.9c4.6 4.6 11.3 10 20.1 16.4 8.9 6.4 18.7 12.7 29.4 18.9 10.8 6.2 23.3 11.2 37.5 15.1 14.3 3.9 28.2 5.5 41.7 4.7h32.8c6.7-.6 11.7-2.7 15.1-6.3l1.1-1.4c.8-1.1 1.5-2.9 2.1-5.3.7-2.4 1-5 1-7.9-.2-8.2.4-15.6 1.9-22.1 1.4-6.6 3-11.5 4.9-14.8 1.8-3.3 3.9-6.1 6.1-8.4 2.3-2.3 3.9-3.7 4.9-4.1.9-.5 1.7-.8 2.3-1 4.6-1.5 9.9 0 16.1 4.4 6.2 4.5 12 10 17.4 16.6 5.4 6.6 11.9 13.9 19.6 22.1 7.6 8.2 14.3 14.3 20 18.3l5.7 3.4c3.8 2.3 8.8 4.4 14.9 6.3 6.1 1.9 11.4 2.4 16 1.4l73.1-1.1c7.2 0 12.9-1.2 16.8-3.6 4-2.4 6.4-5 7.1-7.9.8-2.9.8-6.1.1-9.7-.6-3.7-1.3-6.2-1.9-7.7z"/></symbol></svg>